<svg width="309" height="282" viewBox="0 0 309 282" fill="none" xmlns="http://www.w3.org/2000/svg">
<g clip-path="url(#clip0_84_765)">
<path d="M134.12 134.18C140.245 134.18 145.21 129.215 145.21 123.09C145.21 116.965 140.245 112 134.12 112C127.995 112 123.03 116.965 123.03 123.09C123.03 129.215 127.995 134.18 134.12 134.18Z" fill="#27515E"/>
<path d="M176.62 134.18C182.745 134.18 187.71 129.215 187.71 123.09C187.71 116.965 182.745 112 176.62 112C170.495 112 165.53 116.965 165.53 123.09C165.53 129.215 170.495 134.18 176.62 134.18Z" fill="#FFEA70"/>
<path d="M129.31 140.2C122.85 141.25 102.31 139.85 101.04 171.64C100.6 182.51 103.22 183.09 145.59 182.05" stroke="#27515E" stroke-width="6" stroke-miterlimit="10" stroke-linecap="round"/>
<path d="M142.83 138.48C172.25 150.79 191.33 134.88 193.82 133.48" stroke="#27515E" stroke-width="6" stroke-miterlimit="10" stroke-linecap="round"/>
<path d="M178.87 140.98C180.87 140.7 210.06 144.33 208.28 175.26C207.79 183.76 202.28 181.47 161.73 181.77" stroke="#FFEA70" stroke-width="6" stroke-miterlimit="10" stroke-linecap="round"/>
<path d="M124.23 168.62C128.416 168.62 131.81 165.226 131.81 161.04C131.81 156.854 128.416 153.46 124.23 153.46C120.044 153.46 116.65 156.854 116.65 161.04C116.65 165.226 120.044 168.62 124.23 168.62Z" stroke="#ABC8FD" stroke-width="3" stroke-miterlimit="10"/>
<path d="M120.58 168.03L118.92 174.25" stroke="#ABC8FD" stroke-width="3" stroke-miterlimit="10" stroke-linecap="round"/>
<path d="M127.2 168.22L129.73 174.07" stroke="#ABC8FD" stroke-width="3" stroke-miterlimit="10" stroke-linecap="round"/>
</g>
<path d="M98.4516 51.0509L36.6966 149.108L36.7169 148.46L92.466 245.775L91.5256 245.246L209.154 244.523L207.851 245.234C227.617 213.479 249.632 178.616 269.7 147.122L269.635 148.978C255.798 124.696 228.261 75.6485 214.64 51.2538L215.919 51.972C206.182 51.9498 196.446 51.9275 186.689 51.8438C159.591 51.6951 125.534 51.3577 98.4414 51.0535L98.4516 51.0509ZM98.2734 50.7424C136.272 50.0994 178.11 49.3859 216.023 49.0784L216.887 49.0715L217.302 49.7967C231.27 74.0196 259.285 122.784 273.055 147.105L273.583 148.027L272.989 148.961C261.114 167.852 246.031 191.171 233.981 210.081C228.948 217.929 215.566 238.559 210.356 246.633L209.903 247.346L209.059 247.347C208.004 247.522 91.8524 247.248 90.8056 247.369L90.5034 246.841L35.5086 149.116L35.3257 148.788L35.5328 148.463L98.2633 50.745L98.2734 50.7424Z" fill="#27515E"/>
<defs>
<clipPath id="clip0_84_765">
<rect width="113.37" height="73.42" fill="white" transform="translate(98 112)"/>
</clipPath>
</defs>
</svg>
