<svg width="38" height="32" viewBox="0 0 38 32" fill="none" xmlns="http://www.w3.org/2000/svg">
<path d="M13.3325 22.9044C13.5658 22.6822 13.7903 22.4688 14.0739 22.1992C14.6262 22.7711 15.1874 23.3667 15.7633 23.9504C17.2963 25.5001 18.8262 27.0469 20.3739 28.5818C20.6161 28.8218 20.9115 29.0292 21.2187 29.1715C21.7326 29.4085 22.2406 29.3404 22.6601 28.9315C23.0795 28.5196 23.1563 28.007 22.9288 27.4884C22.7871 27.1684 22.5744 26.8573 22.3292 26.6083C20.2972 24.543 18.2503 22.4925 16.2093 20.4391C16.1444 20.3739 16.0853 20.3028 15.9967 20.205C16.233 19.9916 16.4604 19.7842 16.7085 19.5561C16.7528 19.5916 16.8237 19.645 16.8857 19.7072C18.9149 21.7429 20.9351 23.7874 22.9761 25.8113C23.2715 26.1046 23.6436 26.3535 24.0246 26.5224C24.4883 26.7269 24.958 26.6113 25.336 26.2468C25.7643 25.832 25.8086 25.3046 25.6019 24.8038C25.4483 24.4304 25.1736 24.0867 24.8871 23.7934C22.9525 21.8258 21.0031 19.8761 19.0566 17.9234C18.9355 17.8019 18.7997 17.6922 18.6667 17.5707C18.9237 17.3218 19.1452 17.1085 19.3963 16.8655C19.4554 16.9189 19.544 16.9989 19.6326 17.0878C21.6617 19.1234 23.6879 21.1621 25.7141 23.2007C26.0626 23.5504 26.4466 23.8408 26.9605 23.9C27.8821 24.0067 28.6116 23.2096 28.3399 22.3177C28.2217 21.9266 27.9736 21.5325 27.6871 21.2362C25.5487 19.0494 23.3837 16.8892 21.2275 14.7202C20.3031 13.7927 19.3815 12.8623 18.457 11.9348C18.3684 11.8459 18.2769 11.763 18.1587 11.6533C17.2461 12.5778 16.3511 13.4846 15.4532 14.3883C14.954 14.8891 14.4696 15.4047 13.9469 15.8788C13.1819 16.5692 12.2899 16.7974 11.3093 16.427C10.3168 16.0536 9.72907 15.3158 9.56958 14.2639C9.43666 13.369 9.77633 12.6193 10.3966 11.9971C12.5823 9.79249 14.7739 7.59087 16.9655 5.39221C17.249 5.10775 17.5562 4.84403 17.949 4.48252C17.5887 4.16547 17.2785 3.92249 17.0068 3.64395C16.0321 2.64537 15.0279 1.69717 13.7726 1.04824C8.01302 -1.94158 0.912497 1.77717 0.0913883 8.2398C-0.301444 11.3244 0.569876 14.0298 2.74965 16.2403C7.72356 21.2806 12.727 26.2883 17.7275 31.299C17.9815 31.5538 18.3123 31.7583 18.6461 31.8976C19.1305 32.0991 19.609 32.0013 19.9929 31.622C20.3769 31.2427 20.4744 30.7597 20.2794 30.2708C20.1465 29.936 19.9457 29.5982 19.6917 29.3433C17.6448 27.2602 15.5802 25.1949 13.5215 23.1237C13.4565 23.0585 13.4034 22.9874 13.3295 22.9015L13.3325 22.9044Z" fill="#27515E"/>
<path d="M30.5876 9.51096C30.7766 9.77172 30.9568 10.0206 31.1606 10.2962C30.496 10.8147 29.799 11.2177 29.0547 11.5318C25.9947 12.8238 23.0263 12.4652 20.1199 11.0222C19.9752 10.9511 19.8334 10.871 19.6917 10.791C19.3963 10.6251 19.1187 10.6962 18.8587 11.0044C19.2722 11.3926 19.7005 11.7748 20.1081 12.1837C22.858 14.9395 25.6048 17.6981 28.3458 20.4657C28.6382 20.7591 28.8774 21.1028 29.161 21.4495C29.1994 21.4199 29.2703 21.3695 29.3294 21.3102C30.9982 19.636 32.6758 17.9678 34.3298 16.2788C38.7898 11.7244 37.7649 4.35509 32.2416 1.19933C28.6648 -0.845238 23.9715 -0.21705 21.0238 2.72832C17.7275 6.02038 14.4578 9.3391 11.1645 12.6341C9.98014 13.8194 10.6979 15.1261 11.6194 15.4817C12.2781 15.7336 12.8511 15.5528 13.3384 15.0846C13.9793 14.4653 14.6026 13.8253 15.2346 13.1942C16.4693 11.9526 17.7039 10.714 18.9326 9.46652C19.095 9.30058 19.1955 9.25613 19.414 9.41318C22.4563 11.6 26.7006 12.2608 30.3631 9.6532C30.4281 9.60875 30.499 9.57023 30.5905 9.51393L30.5876 9.51096Z" fill="#27515E"/>
</svg>
